<?xml version="1.0" encoding="utf-8"?>
<svg version="1.1" xmlns:xlink="http://www.w3.org/1999/xlink" width="324px" height="63px" xmlns="http://www.w3.org/2000/svg">
  <defs>
    <filter x="165px" y="516px" width="324px" height="63px" filterUnits="userSpaceOnUse" id="filter86">
      <feOffset dx="5" dy="5" in="SourceAlpha" result="shadowOffsetInner" />
      <feGaussianBlur stdDeviation="2.5" in="shadowOffsetInner" result="shadowGaussian" />
      <feComposite in2="shadowGaussian" operator="atop" in="SourceAlpha" result="shadowComposite" />
      <feColorMatrix type="matrix" values="0 0 0 0 0  0 0 0 0 0.105882352941176  0 0 0 0 0.211764705882353  0 0 0 1 0  " in="shadowComposite" />
    </filter>
    <g id="widget87">
      <path d="M 166.5 541  A 23.5 23.5 0 0 1 190 517.5 L 454 517.5  A 23.5 23.5 0 0 1 477.5 541 L 477.5 544  A 23.5 23.5 0 0 1 454 567.5 L 190 567.5  A 23.5 23.5 0 0 1 166.5 544 L 166.5 541  Z " fill-rule="nonzero" fill="#176465" stroke="none" fill-opacity="0.509803921568627" />
      <path d="M 166 541  A 24 24 0 0 1 190 517 L 454 517  A 24 24 0 0 1 478 541 L 478 544  A 24 24 0 0 1 454 568 L 190 568  A 24 24 0 0 1 166 544 L 166 541  Z " stroke-width="2" stroke="#001831" fill="none" />
    </g>
  </defs>
  <g transform="matrix(1 0 0 1 -165 -516 )">
    <use xlink:href="#widget87" filter="url(#filter86)" />
    <use xlink:href="#widget87" />
  </g>
</svg>